<svg 
 xmlns="http://www.w3.org/2000/svg"
 xmlns:xlink="http://www.w3.org/1999/xlink"
 width="18px" height="17px">
<path fill-rule="evenodd"  fill="rgb(255, 255, 255)"
 d="M14.936,7.276 C14.936,7.276 10.693,3.033 10.693,3.033 C10.693,3.033 12.814,0.912 12.814,0.912 C12.814,0.912 17.057,5.154 17.057,5.154 C17.057,5.154 14.936,7.276 14.936,7.276 ZM11.438,13.281 C11.438,13.281 1.969,16.937 1.969,16.937 C1.969,16.937 1.485,16.505 1.485,16.505 C1.485,16.505 6.659,11.969 6.659,11.969 C6.659,11.969 8.000,11.969 8.000,11.969 C8.000,11.969 8.000,9.969 8.000,9.969 C8.000,9.969 6.000,9.969 6.000,9.969 C6.000,9.969 6.000,11.410 6.000,11.410 C6.000,11.410 1.423,16.449 1.423,16.449 C1.423,16.449 0.984,16.057 0.984,16.057 C0.984,16.057 4.781,7.156 4.781,7.156 C4.781,7.156 10.531,4.531 10.531,4.531 C10.531,4.531 14.000,7.719 14.000,7.719 C14.000,7.719 11.438,13.281 11.438,13.281 Z"/>
</svg>