<svg 
 xmlns="http://www.w3.org/2000/svg"
 xmlns:xlink="http://www.w3.org/1999/xlink"
 width="19px" height="16px">
<path fill-rule="evenodd"  fill="rgb(255, 255, 255)"
 d="M12.389,6.862 C11.906,8.092 10.817,9.079 10.817,9.793 C10.817,10.507 11.936,11.553 11.936,11.553 C11.936,11.553 18.271,13.712 18.271,14.676 C18.271,15.639 18.271,15.984 18.271,15.984 C18.271,15.984 -0.001,15.986 -0.001,15.986 C-0.001,15.986 -0.001,15.604 -0.001,14.676 C-0.001,13.748 6.430,11.519 6.430,11.519 C6.430,11.519 7.406,10.447 7.406,9.800 C7.406,9.153 6.326,8.103 5.839,6.867 C5.559,6.154 5.343,3.660 5.643,2.456 C6.121,0.534 8.079,0.020 9.113,0.020 C10.148,0.020 11.917,0.588 12.583,2.450 C12.848,3.192 12.669,6.150 12.389,6.862 Z"/>
</svg>