<svg 
 xmlns="http://www.w3.org/2000/svg"
 xmlns:xlink="http://www.w3.org/1999/xlink"
 width="17px" height="17px">
<path fill-rule="evenodd"  fill="rgb(255, 255, 255)"
 d="M15.380,10.248 C15.380,10.248 14.533,10.248 14.533,10.248 C14.395,10.746 14.198,11.218 13.946,11.656 C13.946,11.656 14.728,12.439 14.728,12.439 C15.229,12.940 15.229,13.752 14.728,14.252 C14.728,14.252 14.275,14.706 14.275,14.706 C13.774,15.207 12.962,15.207 12.461,14.706 C12.461,14.706 11.674,13.918 11.674,13.918 C11.237,14.167 10.766,14.361 10.270,14.496 C10.270,14.496 10.270,15.317 10.270,15.317 C10.270,16.025 9.696,16.600 8.988,16.600 C8.988,16.600 8.346,16.600 8.346,16.600 C7.638,16.600 7.064,16.025 7.064,15.317 C7.064,15.317 7.064,14.496 7.064,14.496 C6.568,14.361 6.097,14.167 5.660,13.918 C5.660,13.918 4.873,14.706 4.873,14.706 C4.372,15.207 3.560,15.207 3.059,14.706 C3.059,14.706 2.606,14.252 2.606,14.252 C2.105,13.752 2.105,12.940 2.606,12.439 C2.606,12.439 3.389,11.656 3.389,11.656 C3.136,11.218 2.939,10.746 2.801,10.248 C2.801,10.248 1.954,10.248 1.954,10.248 C1.246,10.248 0.672,9.674 0.672,8.965 C0.672,8.965 0.672,8.324 0.672,8.324 C0.672,7.616 1.246,7.042 1.954,7.042 C1.954,7.042 2.791,7.042 2.791,7.042 C2.923,6.548 3.113,6.079 3.358,5.643 C3.358,5.643 2.606,4.891 2.606,4.891 C2.105,4.390 2.105,3.578 2.606,3.077 C2.606,3.077 3.059,2.624 3.059,2.624 C3.560,2.123 4.372,2.123 4.873,2.624 C4.873,2.624 5.611,3.361 5.611,3.361 C6.062,3.099 6.549,2.894 7.064,2.753 C7.064,2.753 7.064,1.892 7.064,1.892 C7.064,1.184 7.638,0.610 8.346,0.610 C8.346,0.610 8.988,0.610 8.988,0.610 C9.696,0.610 10.270,1.184 10.270,1.892 C10.270,1.892 10.270,2.753 10.270,2.753 C10.785,2.894 11.272,3.099 11.723,3.361 C11.723,3.361 12.461,2.624 12.461,2.624 C12.962,2.123 13.774,2.123 14.275,2.624 C14.275,2.624 14.728,3.077 14.728,3.077 C15.229,3.578 15.229,4.390 14.728,4.891 C14.728,4.891 13.976,5.643 13.976,5.643 C14.221,6.079 14.411,6.548 14.543,7.042 C14.543,7.042 15.380,7.042 15.380,7.042 C16.088,7.042 16.662,7.616 16.662,8.324 C16.662,8.324 16.662,8.965 16.662,8.965 C16.662,9.674 16.088,10.248 15.380,10.248 ZM8.667,5.138 C6.719,5.138 5.140,6.717 5.140,8.665 C5.140,10.612 6.719,12.191 8.667,12.191 C10.615,12.191 12.194,10.612 12.194,8.665 C12.194,6.717 10.615,5.138 8.667,5.138 ZM8.667,10.228 C7.782,10.228 7.064,9.510 7.064,8.625 C7.064,7.739 7.782,7.022 8.667,7.022 C9.552,7.022 10.270,7.739 10.270,8.625 C10.270,9.510 9.552,10.228 8.667,10.228 Z"/>
</svg>